<svg xmlns="http://www.w3.org/2000/svg" width="163.772" height="37.476" viewBox="496.4 2677.221 163.772 37.476"><g data-name="Group 58"><g data-name="Group 56"><path d="M613.567 2677.221h4.548a3.403 3.403 0 0 1 3.404 3.403 3.403 3.403 0 0 1-3.404 3.404h-4.548a3.403 3.403 0 0 1-3.403-3.404 3.403 3.403 0 0 1 3.403-3.403z" fill="#fff" fill-rule="evenodd" data-name="Rectangle 61"/><path d="M626.45 2689.85c-2.728-2.623-6.264-3.934-10.609-3.934-4.37 0-7.934 1.377-10.689 4.133-2.728 2.728-4.093 6.146-4.093 10.251 0 4.345 1.377 7.829 4.133 10.45 2.781 2.623 6.33 3.935 10.65 3.935 4.264 0 7.788-1.351 10.569-4.053 2.808-2.702 4.212-6.145 4.212-10.332 0-4.344-1.39-7.828-4.172-10.45Zm-4.95 15.982c-1.489 1.447-3.375 2.17-5.659 2.17-2.312 0-4.212-.702-5.702-2.106-1.475-1.404-2.212-3.27-2.212-5.596 0-2.198.73-4.028 2.191-5.489 1.475-1.475 3.383-2.212 5.723-2.212 2.326 0 4.22.702 5.68 2.106 1.49 1.404 2.234 3.27 2.234 5.595 0 2.242-.751 4.085-2.255 5.532Z" fill="#fff" fill-rule="evenodd" data-name="Path 71"/></g><path d="M578.31 2712.23v-23.854a2.46 2.46 0 0 1 2.461-2.46h6.254c3.18 0 5.584.572 7.214 1.847 1.63 1.274 2.446 3.02 2.446 5.24 0 2.823-1.096 4.96-3.288 6.413v.082c1.233.467 2.226 1.261 2.98 2.385.753 1.123 1.13 2.52 1.13 4.192 0 2.878-1.014 5.084-3.041 6.618-2.001 1.508-4.632 1.997-7.893 1.997h-5.802a2.46 2.46 0 0 1-2.46-2.46Zm8.633-20.048h-2.055v5.22h2.179c2.027 0 3.041-.932 3.041-2.795 0-.795-.301-1.425-.904-1.891-.603-.466-1.357-.534-2.261-.534Zm.493 10.975h-2.548v5.384c.602.165 1.342.247 2.22.247 2.548 0 3.822-1.014 3.822-3.041 0-1.727-1.165-2.59-3.494-2.59Z" fill="#fff" fill-rule="evenodd" data-name="Path 72"/><path d="M502.977 2704.619v7.61a2.46 2.46 0 0 1-2.46 2.46h-1.656a2.46 2.46 0 0 1-2.46-2.46v-23.863c0-1.351 1.086-2.45 2.438-2.46.871-.007 1.785-.017 2.74-.031 1.891-.027 3.426-.041 4.605-.041 7.097 0 10.646 3.07 10.646 9.207 0 3.947-1.618 6.715-4.85 8.304l5.486 7.422c1.2 1.624.04 3.923-1.979 3.923h-1.81a2.46 2.46 0 0 1-2.02-1.058l-6.254-9.013h-2.426Zm2.877-12.62a33.078 33.078 0 0 1-1.397.062c-.467.014-.96.02-1.48.02v6.372h2.384c2.987 0 4.48-1.11 4.48-3.33 0-2.082-1.329-3.123-3.987-3.123Z" fill="#fff" fill-rule="evenodd" data-name="Path 73"/><path d="m653.4 2687.46-5.865 15.394c-.268.704-1.264.704-1.533 0l-5.864-15.395a2.46 2.46 0 0 0-2.3-1.584h-2.01a2.46 2.46 0 0 0-2.284 3.374l9.542 23.853a2.46 2.46 0 0 0 2.284 1.547h2.798a2.46 2.46 0 0 0 2.284-1.547l9.542-23.853a2.46 2.46 0 0 0-2.284-3.374h-2.011a2.46 2.46 0 0 0-2.3 1.584Z" fill="#fff" fill-rule="evenodd" data-name="Path 74"/><path d="m553.903 2713.113 5.865-15.395c.268-.704 1.264-.704 1.532 0l5.865 15.395a2.46 2.46 0 0 0 2.299 1.584h2.01a2.46 2.46 0 0 0 2.285-3.373l-9.542-23.854a2.46 2.46 0 0 0-2.284-1.546h-2.799c-1.005 0-1.91.612-2.283 1.546l-9.542 23.854a2.46 2.46 0 0 0 2.284 3.373h2.011a2.46 2.46 0 0 0 2.299-1.584Z" fill="#fff" fill-rule="evenodd" data-name="Path 75"/><g data-name="Group 57"><path d="M540.018 2703.713h-16.073c-1.513 0-2.74-1.101-2.74-2.46v-1.886c0-1.358 1.227-2.46 2.74-2.46h16.073c1.513 0 2.74 1.102 2.74 2.46v1.886c0 1.359-1.227 2.46-2.74 2.46Z" fill="#fff" fill-rule="evenodd" data-name="Path 76"/><path d="M540.018 2714.697h-16.073c-1.513 0-2.74-1.101-2.74-2.46v-1.886c0-1.358 1.227-2.46 2.74-2.46h16.073c1.513 0 2.74 1.102 2.74 2.46v1.886c0 1.359-1.227 2.46-2.74 2.46Z" fill="#fff" fill-rule="evenodd" data-name="Path 77"/><path d="M540.018 2692.73h-16.073c-1.513 0-2.74-1.102-2.74-2.46v-1.886c0-1.359 1.227-2.46 2.74-2.46h16.073c1.513 0 2.74 1.101 2.74 2.46v1.886c0 1.358-1.227 2.46-2.74 2.46Z" fill="#fff" fill-rule="evenodd" data-name="Path 78"/></g></g></svg>