<svg xmlns="http://www.w3.org/2000/svg" width="34.768" height="34.803"><g data-name="Layer 1"><path d="M22.248 34.793H15.99c-.363-.022-.723-.059-1.085-.064-.229.01-.457.03-.683.064h-2.99c-.114-.024-.226-.056-.34-.07-1.156-.137-2.334-.174-3.464-.423a8.734 8.734 0 0 1-6.294-5C.365 27.677.14 25.938.087 24.15.047 22.804.03 21.457 0 20.115v-5.446c.026-1.255.048-2.512.085-3.77.005-1.28.164-2.555.473-3.797.81-2.933 2.58-5.029 5.418-6.185C7.575.265 9.263.079 10.965.06c3.499-.04 7-.061 10.5-.061 1.889 0 3.787 0 5.65.394 3.02.643 5.277 2.298 6.598 5.122.847 1.813 1.035 3.76 1.043 5.73 0 3.999.029 7.998 0 11.997a20.273 20.273 0 0 1-.35 3.78c-.728 3.604-2.863 6.018-6.397 7.145-1.381.44-2.818.53-4.258.57-.115.013-.23.036-.342.065h-1.161Zm-4.833-3.076v-.053c.918 0 1.837.027 2.755 0 1.98-.071 3.97-.047 5.934-.296 2.673-.336 4.48-1.882 5.134-4.542.247-1.092.373-2.209.376-3.33.058-3.498.075-6.999.05-10.501a36.552 36.552 0 0 0-.264-4.203c-.334-2.731-2.044-4.663-4.698-5.224a20.379 20.379 0 0 0-3.811-.363c-3.041-.06-6.082-.048-9.129-.029-1.744 0-3.493-.034-5.216.291-2.604.484-4.311 1.982-4.976 4.579a15.332 15.332 0 0 0-.357 3.644c-.037 2.798-.071 5.595-.037 8.395.024 1.956.08 3.92.265 5.868a5.764 5.764 0 0 0 2.646 4.46A7.302 7.302 0 0 0 9.92 31.52c2.487.096 4.991.135 7.495.196Z" fill="#fff" fill-rule="evenodd" data-name="Path 66"/><path d="M17.402 26.334a8.94 8.94 0 1 1 8.953-8.93 8.956 8.956 0 0 1-8.953 8.93Zm-5.78-8.932a5.796 5.796 0 1 0 5.8-5.804 5.775 5.775 0 0 0-5.8 5.804Z" fill="#fff" fill-rule="evenodd" data-name="Path 67"/></g></svg>