<svg xmlns="http://www.w3.org/2000/svg" width="417.155" height="51.732"><g data-name="Logo"><path d="M8.983 37.244v13.754H0V11.7c2.134 0 4.492-.018 7.074-.056a462.27 462.27 0 0 1 6.287-.056c9.693 0 14.54 4.192 14.54 12.575 0 5.389-2.209 9.17-6.624 11.34l11.452 15.494H21.838l-9.543-13.754H8.983Zm3.929-17.234c-.037 0-.206.009-.505.028a66.232 66.232 0 0 1-3.424.084v8.7h3.255c4.08 0 6.12-1.515 6.12-4.546 0-2.844-1.816-4.266-5.446-4.266" fill="#fff" fill-rule="evenodd" data-name="Path 41"/><path d="M110.76 50.885V11.813c4.378-.224 8.345-.337 11.9-.337 4.341 0 7.626.87 9.853 2.61 2.226 1.742 3.34 4.127 3.34 7.158 0 3.856-1.498 6.775-4.49 8.758v.113c1.683.636 3.039 1.721 4.069 3.255 1.029 1.535 1.544 3.443 1.544 5.726 0 3.93-1.385 6.943-4.154 9.039-2.733 2.058-6.326 3.087-10.779 3.087-5.202 0-8.964-.112-11.284-.337m11.789-30.988c-.673 0-1.61.076-2.806.225v7.13h2.974c2.77 0 4.155-1.273 4.155-3.818 0-1.085-.413-1.946-1.235-2.583-.824-.636-1.853-.954-3.088-.954m.674 15.213h-3.48v7.354c.822.225 1.832.337 3.03.337 3.481 0 5.222-1.384 5.222-4.154 0-2.358-1.592-3.537-4.772-3.537" fill="#fff" fill-rule="evenodd" data-name="Path 42"/><path d="M142.59 31.35c0-5.802 1.926-10.63 5.782-14.484 3.892-3.892 8.925-5.839 15.101-5.839 6.137 0 11.133 1.853 14.989 5.558 3.93 3.705 5.894 8.627 5.894 14.764 0 5.914-1.984 10.779-5.95 14.596-3.93 3.817-8.908 5.726-14.933 5.726-6.1 0-11.115-1.853-15.045-5.557-3.893-3.706-5.838-8.627-5.838-14.765m9.543 0c0 3.332 1.103 6.157 3.312 8.477 2.17 2.283 4.846 3.424 8.028 3.424 3.593 0 6.38-1.103 8.364-3.311 1.984-2.283 2.976-5.146 2.976-8.59 0-3.555-1.086-6.418-3.256-8.589-2.209-2.208-4.903-3.312-8.084-3.312-3.294 0-6.007 1.104-8.14 3.312-2.134 2.209-3.2 5.072-3.2 8.59" fill="#fff" fill-rule="evenodd" data-name="Path 43"/><path d="M160.367 0h6.212a4.647 4.647 0 0 1 4.648 4.647 4.647 4.647 0 0 1-4.648 4.648h-6.212a4.647 4.647 0 0 1-4.647-4.648A4.647 4.647 0 0 1 160.367 0z" fill="#fff" fill-rule="evenodd" data-name="Rectangle 49"/><path d="M213.266 11.7h9.038L206.98 50.998h-6.906L184.355 11.7h9.6l9.88 25.935 9.431-25.935Z" fill="#fff" fill-rule="evenodd" data-name="Path 44"/><path d="M60.494 21.35H38.469a2.245 2.245 0 0 1-2.246-2.245v-4.832a2.245 2.245 0 0 1 2.246-2.246h22.025a2.245 2.245 0 0 1 2.245 2.246v4.832a2.245 2.245 0 0 1-2.245 2.245" fill="#fff" fill-rule="evenodd" data-name="Path 45"/><path d="M60.494 36.396H38.469a2.245 2.245 0 0 1-2.246-2.245v-4.833a2.245 2.245 0 0 1 2.246-2.245h22.025a2.245 2.245 0 0 1 2.245 2.245v4.833a2.245 2.245 0 0 1-2.245 2.245" fill="#fff" fill-rule="evenodd" data-name="Path 46"/><path d="M60.494 51.549H38.469a2.245 2.245 0 0 1-2.246-2.246v-4.832a2.246 2.246 0 0 1 2.246-2.246h22.025a2.245 2.245 0 0 1 2.245 2.246v4.832a2.245 2.245 0 0 1-2.245 2.246" fill="#fff" fill-rule="evenodd" data-name="Path 47"/><path d="M90.261 16.842 78.123 49.734a2.86 2.86 0 0 1-3.675 1.693l-3.396-1.253a2.86 2.86 0 0 1-1.694-3.674l12.14-32.892a2.861 2.861 0 0 1 3.673-1.694l3.397 1.254a2.86 2.86 0 0 1 1.693 3.674" fill="#fff" fill-rule="evenodd" data-name="Path 48"/><path d="m94.14 50.259-6.891-18.16a2.283 2.283 0 0 1 1.324-2.944l4.467-1.694a2.283 2.283 0 0 1 2.944 1.324l6.89 18.16a2.282 2.282 0 0 1-1.324 2.943l-4.466 1.695a2.283 2.283 0 0 1-2.944-1.324" fill="#fff" fill-rule="evenodd" data-name="Path 49"/><path d="M262.627 41.202c0-1.726-.506-3.208-1.519-4.446a9.707 9.707 0 0 0-3.77-2.813 548.985 548.985 0 0 1-4.896-2.11 102.198 102.198 0 0 1-4.896-2.28c-1.501-.75-2.757-1.866-3.77-3.348-1.013-1.482-1.52-3.236-1.52-5.262 0-2.85 1.032-5.195 3.095-7.034 2.101-1.876 4.915-2.814 8.441-2.814 4.615 0 8.141 1.332 10.58 3.996l-1.688 2.307c-2.251-2.251-5.177-3.376-8.78-3.376-2.588 0-4.633.628-6.133 1.885-1.5 1.257-2.25 2.936-2.25 5.036 0 1.688.506 3.143 1.519 4.362a9.306 9.306 0 0 0 3.77 2.729c1.5.6 3.132 1.266 4.896 1.997a77.059 77.059 0 0 1 4.896 2.224c1.5.75 2.757 1.885 3.77 3.404 1.013 1.52 1.52 3.348 1.52 5.487 0 3.076-1.201 5.57-3.602 7.484-2.401 1.913-5.384 2.87-8.948 2.87-2.439 0-4.84-.506-7.203-1.52-2.326-1.087-3.958-2.476-4.895-4.164l1.856-2.138c1.126 1.463 2.626 2.645 4.502 3.546 1.876.9 3.77 1.35 5.684 1.35 2.55 0 4.745-.656 6.584-1.97 1.838-1.275 2.757-3.076 2.757-5.402Z" fill="#fff" fill-rule="evenodd" data-name="Path 50"/><path d="M284.068 14.528h-14.576v-2.926h32.246v2.926h-14.575v36.465h-3.095V14.528Z" fill="#fff" fill-rule="evenodd" data-name="Path 51"/><path d="M303.425 31.298c0-5.74 1.876-10.542 5.628-14.406 3.75-3.864 8.46-5.797 14.125-5.797 5.627 0 10.316 1.913 14.068 5.74 3.79 3.79 5.684 8.61 5.684 14.463 0 5.74-1.895 10.56-5.684 14.462-3.752 3.827-8.44 5.74-14.068 5.74s-10.336-1.894-14.125-5.684c-3.752-3.789-5.628-8.628-5.628-14.518Zm3.264 0c0 4.877 1.576 8.985 4.727 12.324 3.188 3.302 7.11 4.952 11.762 4.952 4.801 0 8.74-1.65 11.817-4.952 3.114-3.34 4.671-7.447 4.671-12.324 0-4.99-1.595-9.097-4.783-12.324-3.152-3.301-7.054-4.952-11.705-4.952-4.69 0-8.61 1.65-11.762 4.952-3.151 3.263-4.727 7.372-4.727 12.324Z" fill="#fff" fill-rule="evenodd" data-name="Path 52"/><path d="m379.733 44.86 1.238 2.307c-1.35 1.35-3.124 2.411-5.318 3.18a20.7 20.7 0 0 1-6.894 1.153c-5.852 0-10.617-1.838-14.293-5.515-3.64-3.638-5.459-8.534-5.459-14.687 0-5.815 1.763-10.617 5.29-14.406 3.526-3.864 8.197-5.797 14.012-5.797 4.99 0 8.966 1.238 11.93 3.714l-1.463 2.308c-2.664-2.063-6.133-3.095-10.41-3.095-4.803 0-8.686 1.631-11.65 4.895-2.963 3.19-4.445 7.316-4.445 12.38 0 5.14 1.538 9.305 4.614 12.493 3.076 3.19 7.11 4.784 12.1 4.784 4.126 0 7.71-1.238 10.748-3.715Z" fill="#fff" fill-rule="evenodd" data-name="Path 53"/><path d="M392.225 50.993h-3.095V11.602h3.095v39.391Zm20.371-39.391h3.77L397.74 30.228l19.415 20.765h-3.996l-19.077-20.54 18.514-18.851Z" fill="#fff" fill-rule="evenodd" data-name="Path 54"/></g></svg>